# Blender v2.93.1 OBJ File: 'frame.blend'
# www.blender.org
mtllib frame.mtl
o Cube
v -0.064954 1.882043 -0.207958
v 0.119410 1.344158 -0.207958
v -0.064954 1.882043 0.207958
v 0.119410 1.344158 0.207958
v -0.119410 1.863378 -0.207958
v 0.064954 1.325493 -0.207958
v -0.119410 1.863378 0.207958
v 0.064954 1.325493 0.207958
v 0.064954 1.325493 -0.163421
v -0.064954 1.882043 -0.163421
v -0.119410 1.863378 -0.163421
v 0.119410 1.344158 -0.163421
v 0.064954 1.325493 0.153665
v -0.064954 1.882043 0.153665
v -0.119410 1.863378 0.153665
v 0.119410 1.344158 0.153665
v -0.050063 1.838601 -0.207958
v -0.104520 1.819935 0.207958
v -0.050063 1.838601 0.207958
v -0.104520 1.819935 -0.207958
v -0.050063 1.838601 -0.163421
v -0.104520 1.819935 -0.163421
v -0.104520 1.819935 0.153665
v -0.050063 1.838601 0.153665
v 0.099387 1.402575 -0.207958
v 0.099387 1.402575 0.207958
v 0.044931 1.383910 -0.207958
v 0.099387 1.402575 -0.163421
v 0.044931 1.383910 -0.163421
v 0.044931 1.383910 0.153665
v 0.099387 1.402575 0.153665
v 0.044931 1.383910 0.207958
v -0.076780 1.829443 -0.163421
v -0.076780 1.829443 0.153665
v 0.072670 1.393418 -0.163421
v 0.072670 1.393418 0.153665
v -0.119410 1.863378 0.092520
v 0.119410 1.344158 0.092520
v 0.064954 1.325493 0.092520
v -0.064954 1.882043 0.092520
v -0.050063 1.838601 0.092520
v -0.104520 1.819935 0.092520
v 0.044931 1.383910 0.092520
v 0.099387 1.402575 0.092520
v -0.076780 1.829443 0.092520
v 0.072670 1.393418 0.092520
v -0.119410 1.863378 -0.105987
v 0.119410 1.344158 -0.105987
v -0.104520 1.819935 -0.105987
v 0.044931 1.383910 -0.105987
v 0.064954 1.325493 -0.105987
v -0.064954 1.882043 -0.105987
v -0.050063 1.838601 -0.105987
v 0.099387 1.402575 -0.105987
v -0.076780 1.829443 -0.105987
v 0.072670 1.393418 -0.105987
v -0.086806 1.768255 0.207958
v -0.032350 1.786920 -0.207958
v -0.032350 1.786920 0.207958
v -0.086806 1.768255 -0.207958
v -0.032350 1.786920 -0.163421
v -0.086806 1.768255 -0.163421
v -0.086806 1.768255 0.153665
v -0.032350 1.786920 0.153665
v -0.059066 1.777763 -0.163421
v -0.059066 1.777763 0.153665
v -0.059066 1.777763 0.092520
v -0.086806 1.768255 0.092520
v -0.059066 1.777763 -0.105987
v -0.086806 1.768255 -0.105987
v 0.074906 1.474000 -0.207958
v 0.074906 1.474000 0.207958
v 0.020450 1.455334 -0.207958
v 0.074906 1.474000 -0.163421
v 0.020450 1.455334 -0.163421
v 0.020450 1.455334 0.153665
v 0.074906 1.474000 0.153665
v 0.048189 1.464842 -0.163421
v 0.048189 1.464842 0.153665
v 0.048189 1.464842 0.092520
v 0.020450 1.455334 0.092520
v 0.048189 1.464842 -0.105987
v 0.020450 1.455334 -0.105987
v 0.020450 1.455334 0.207958
v -0.068643 1.774480 -0.105987
v -0.068643 1.774480 0.092520
v 0.038612 1.461560 0.092520
v 0.038612 1.461560 -0.105987
v -0.033178 1.611795 0.207958
v 0.021278 1.630460 -0.207958
v 0.021278 1.630460 0.207958
v -0.033178 1.611795 -0.207958
v 0.021278 1.630460 -0.163421
v -0.033178 1.611795 -0.163421
v -0.033178 1.611795 0.153665
v 0.021278 1.630460 0.153665
v -0.005439 1.621303 -0.163421
v -0.005439 1.621303 0.153665
v -0.005439 1.621303 0.092520
v -0.033178 1.611795 0.092520
v -0.005439 1.621303 -0.105987
v -0.033178 1.611795 -0.105987
v -0.015016 1.618020 0.092520
v -0.015016 1.618020 -0.105987
v 0.025926 1.616899 -0.207958
v 0.025926 1.616899 0.207958
v -0.028530 1.598234 -0.207958
v 0.025926 1.616899 -0.163421
v -0.028530 1.598234 -0.163421
v -0.028530 1.598234 0.153665
v 0.025926 1.616899 0.153665
v -0.000791 1.607742 -0.163421
v -0.000791 1.607742 0.153665
v -0.000791 1.607742 0.092520
v -0.028530 1.598234 0.092520
v -0.000791 1.607742 -0.105987
v -0.028530 1.598234 -0.105987
v -0.010368 1.604459 0.092520
v -0.010368 1.604459 -0.105987
v -0.028530 1.598234 0.207958
v -0.142634 1.329535 0.092520
v -0.142634 1.329535 -0.105987
v -0.128345 1.328384 0.092520
v -0.128345 1.328384 -0.105987
vt 0.580788 0.680612
vt 0.604808 0.680612
vt 0.604808 0.717365
vt 0.580788 0.717365
vt 0.580788 0.561293
vt 0.604808 0.561293
vt 0.580788 0.526770
vt 0.604808 0.526770
vt 0.508068 0.526770
vt 0.508068 0.561293
vt 0.580788 0.680612
vt 0.580788 0.561293
vt 0.508068 0.680612
vt 0.508068 0.717365
vt 0.402151 0.680612
vt 0.435348 0.680612
vt 0.435348 0.717365
vt 0.402151 0.717365
vt 0.402151 0.561293
vt 0.435348 0.561293
vt 0.402151 0.526770
vt 0.435348 0.526770
vt 0.508068 0.561293
vt 0.501765 0.680612
vt 0.435348 0.680612
vt 0.501765 0.680612
vt 0.435348 0.561293
vt 0.508068 0.680612
vt 0.501765 0.561293
vt 0.501765 0.561293
vt 0.501765 0.717365
vt 0.501765 0.526770
vt 0.625000 0.717365
vt 0.875000 0.717365
vt 0.875000 0.750000
vt 0.625000 0.750000
vt 0.604808 0.750000
vt 0.625000 1.000000
vt 0.604808 1.000000
vt 0.604808 0.223230
vt 0.625000 0.223230
vt 0.625000 0.250000
vt 0.604808 0.250000
vt 0.125000 0.717365
vt 0.375000 0.717365
vt 0.375000 0.750000
vt 0.125000 0.750000
vt 0.604808 0.717365
vt 0.625000 0.500000
vt 0.604808 0.500000
vt 0.625000 0.526770
vt 0.604808 0.526770
vt 0.125000 0.500000
vt 0.375000 0.500000
vt 0.375000 0.526770
vt 0.125000 0.526770
vt 0.604808 0.188707
vt 0.625000 0.188707
vt 0.875000 0.500000
vt 0.875000 0.526770
vt 0.604808 0.000000
vt 0.625000 0.000000
vt 0.625000 0.032635
vt 0.604808 0.032635
vt 0.604808 0.680612
vt 0.625000 0.680612
vt 0.125000 0.680612
vt 0.375000 0.680612
vt 0.875000 0.680612
vt 0.435348 0.717365
vt 0.402151 0.717365
vt 0.580788 0.000000
vt 0.580788 0.032635
vt 0.580788 0.188707
vt 0.580788 0.223230
vt 0.580788 0.500000
vt 0.580788 0.526770
vt 0.580788 0.250000
vt 0.580788 0.717365
vt 0.580788 0.750000
vt 0.580788 1.000000
vt 0.402151 0.750000
vt 0.402151 1.000000
vt 0.375000 1.000000
vt 0.375000 0.223230
vt 0.402151 0.223230
vt 0.402151 0.250000
vt 0.375000 0.250000
vt 0.402151 0.500000
vt 0.402151 0.526770
vt 0.375000 0.188707
vt 0.402151 0.188707
vt 0.375000 0.000000
vt 0.402151 0.000000
vt 0.402151 0.032635
vt 0.375000 0.032635
vt 0.402151 0.680612
vt 0.402151 0.561293
vt 0.604808 0.561293
vt 0.375000 0.561293
vt 0.402151 0.069388
vt 0.375000 0.069388
vt 0.604808 0.069388
vt 0.580788 0.069388
vt 0.625000 0.561293
vt 0.875000 0.561293
vt 0.125000 0.561293
vt 0.625000 0.069388
vt 0.508068 0.069388
vt 0.508068 0.188707
vt 0.508068 0.032635
vt 0.508068 0.526770
vt 0.508068 0.750000
vt 0.508068 1.000000
vt 0.508068 0.223230
vt 0.508068 0.250000
vt 0.508068 0.717365
vt 0.508068 0.500000
vt 0.508068 0.000000
vt 0.435348 0.000000
vt 0.435348 0.032635
vt 0.435348 0.188707
vt 0.435348 0.223230
vt 0.435348 0.500000
vt 0.435348 0.526770
vt 0.435348 0.250000
vt 0.435348 0.750000
vt 0.435348 1.000000
vt 0.435348 0.069388
vt 0.501765 0.717365
vt 0.501765 0.000000
vt 0.501765 0.032635
vt 0.501765 0.188707
vt 0.501765 0.223230
vt 0.501765 0.500000
vt 0.501765 0.526770
vt 0.501765 0.250000
vt 0.501765 0.750000
vt 0.501765 1.000000
vt 0.501765 0.069388
vt 0.501765 0.069388
vt 0.501765 0.188707
vt 0.508068 0.069388
vt 0.508068 0.188707
vt 0.498803 0.129448
vt 0.950476 0.129448
vt 0.950477 0.870552
vt 0.498803 0.870552
vt 0.459656 0.129448
vt 0.459656 0.870552
vt 0.047130 0.129448
vt 0.047129 0.870552
vn 0.9460 0.3242 0.0000
vn 0.3242 -0.9460 0.0000
vn 0.0000 0.0000 1.0000
vn 0.0000 0.0000 -1.0000
vn -0.3242 0.9460 0.0000
vn -0.9460 -0.3242 0.0000
vn 0.9379 -0.3469 0.0000
vn -0.0803 -0.9968 0.0000
vn -0.9324 0.3616 0.0000
usemtl Material
s off
f 67/1/1 45/2/1 34/3/1 66/4/1
f 69/5/1 55/6/1 45/2/1 67/1/1
f 65/7/1 33/8/1 55/6/1 69/5/1
f 97/9/1 65/7/1 69/5/1 101/10/1
f 69/5/2 67/1/2 86/11/2 85/12/2
f 99/13/1 67/1/1 66/4/1 98/14/1
f 46/15/1 80/16/1 79/17/1 36/18/1
f 56/19/1 82/20/1 80/16/1 46/15/1
f 35/21/1 78/22/1 82/20/1 56/19/1
f 101/10/3 69/5/3 85/12/3 104/23/3
f 114/24/4 80/16/4 87/25/4 118/26/4
f 80/16/5 82/20/5 88/27/5 87/25/5
f 67/1/4 99/13/4 103/28/4 86/11/4
f 116/29/3 101/10/3 104/23/3 119/30/3
f 114/24/1 99/13/1 98/14/1 113/31/1
f 112/32/1 97/9/1 101/10/1 116/29/1
f 78/22/1 112/32/1 116/29/1 82/20/1
f 80/16/1 114/24/1 113/31/1 79/17/1
f 82/20/3 116/29/3 119/30/3 88/27/3
f 99/13/4 114/24/4 118/26/4 103/28/4
usemtl Material.001
f 14/33/5 15/34/5 7/35/5 3/36/5
f 19/37/3 3/36/3 7/38/3 18/39/3
f 22/40/6 11/41/6 5/42/6 20/43/6
f 13/44/2 16/45/2 4/46/2 8/47/2
f 24/48/1 14/33/1 3/36/1 19/37/1
f 20/43/4 5/42/4 1/49/4 17/50/4
f 17/50/1 1/49/1 10/51/1 21/52/1
f 6/53/2 2/54/2 12/55/2 9/56/2
f 49/57/6 47/58/6 11/41/6 22/40/6
f 1/49/5 5/59/5 11/60/5 10/51/5
f 18/61/6 7/62/6 15/63/6 23/64/6
f 41/65/1 40/66/1 14/33/1 24/48/1
f 39/67/2 38/68/2 16/45/2 13/44/2
f 40/66/5 37/69/5 15/34/5 14/33/5
f 77/70/4 31/71/4 36/18/4 79/17/4
f 57/72/6 18/61/6 23/64/6 63/73/6
f 70/74/6 49/57/6 22/40/6 62/75/6
f 58/76/1 17/50/1 21/52/1 61/77/1
f 60/78/4 20/43/4 17/50/4 58/76/4
f 64/79/1 24/48/1 19/37/1 59/80/1
f 62/75/6 22/40/6 20/43/6 60/78/6
f 59/80/3 19/37/3 18/39/3 57/81/3
f 4/46/3 26/82/3 32/83/3 8/84/3
f 9/85/6 29/86/6 27/87/6 6/88/6
f 16/45/1 31/71/1 26/82/1 4/46/1
f 6/88/4 27/87/4 25/89/4 2/54/4
f 2/54/1 25/89/1 28/90/1 12/55/1
f 51/91/6 50/92/6 29/86/6 9/85/6
f 8/93/6 32/94/6 30/95/6 13/96/6
f 38/68/1 44/97/1 31/71/1 16/45/1
f 54/98/5 28/90/5 35/21/5 56/19/5
f 41/65/2 24/48/2 34/3/2 45/2/2
f 61/77/3 21/52/3 33/8/3 65/7/3
f 53/99/2 41/65/2 45/2/2 55/6/2
f 31/71/5 44/97/5 46/15/5 36/18/5
f 48/100/1 54/98/1 44/97/1 38/68/1
f 13/96/6 30/95/6 43/101/6 39/102/6
f 63/73/6 23/64/6 42/103/6 68/104/6
f 52/105/5 47/106/5 37/69/5 40/66/5
f 51/107/2 48/100/2 38/68/2 39/67/2
f 53/99/1 52/105/1 40/66/1 41/65/1
f 23/64/6 15/63/6 37/108/6 42/103/6
f 21/52/1 10/51/1 52/105/1 53/99/1
f 9/56/2 12/55/2 48/100/2 51/107/2
f 10/51/5 11/60/5 47/106/5 52/105/5
f 12/55/1 28/90/1 54/98/1 48/100/1
f 21/52/2 53/99/2 55/6/2 33/8/2
f 44/97/5 54/98/5 56/19/5 46/15/5
f 39/102/6 43/101/6 50/92/6 51/91/6
f 68/104/6 42/103/6 49/57/6 70/74/6
f 42/103/6 37/108/6 47/58/6 49/57/6
f 100/109/6 68/104/6 70/74/6 102/110/6
f 95/111/6 63/73/6 68/104/6 100/109/6
f 93/112/3 61/77/3 65/7/3 97/9/3
f 91/113/3 59/80/3 57/81/3 89/114/3
f 94/115/6 62/75/6 60/78/6 92/116/6
f 96/117/1 64/79/1 59/80/1 91/113/1
f 92/116/4 60/78/4 58/76/4 90/118/4
f 90/118/1 58/76/1 61/77/1 93/112/1
f 102/110/6 70/74/6 62/75/6 94/115/6
f 89/119/6 57/72/6 63/73/6 95/111/6
f 24/48/4 64/79/4 66/4/4 34/3/4
f 32/94/6 84/120/6 76/121/6 30/95/6
f 50/92/6 83/122/6 75/123/6 29/86/6
f 25/89/1 71/124/1 74/125/1 28/90/1
f 27/87/4 73/126/4 71/124/4 25/89/4
f 31/71/1 77/70/1 72/127/1 26/82/1
f 29/86/6 75/123/6 73/126/6 27/87/6
f 26/82/3 72/127/3 84/128/3 32/83/3
f 28/90/3 74/125/3 78/22/3 35/21/3
f 30/95/6 76/121/6 81/129/6 43/101/6
f 43/101/6 81/129/6 83/122/6 50/92/6
f 111/130/4 77/70/4 79/17/4 113/31/4
f 64/79/4 96/117/4 98/14/4 66/4/4
f 120/131/6 89/119/6 95/111/6 110/132/6
f 117/133/6 102/110/6 94/115/6 109/134/6
f 105/135/1 90/118/1 93/112/1 108/136/1
f 107/137/4 92/116/4 90/118/4 105/135/4
f 111/130/1 96/117/1 91/113/1 106/138/1
f 109/134/6 94/115/6 92/116/6 107/137/6
f 106/138/3 91/113/3 89/114/3 120/139/3
f 108/136/3 93/112/3 97/9/3 112/32/3
f 110/132/6 95/111/6 100/109/6 115/140/6
f 117/133/7 115/140/7 123/141/7 124/142/7
f 81/129/6 115/140/6 117/133/6 83/122/6
f 76/121/6 110/132/6 115/140/6 81/129/6
f 74/125/3 108/136/3 112/32/3 78/22/3
f 72/127/3 106/138/3 120/139/3 84/128/3
f 75/123/6 109/134/6 107/137/6 73/126/6
f 77/70/1 111/130/1 106/138/1 72/127/1
f 73/126/4 107/137/4 105/135/4 71/124/4
f 71/124/1 105/135/1 108/136/1 74/125/1
f 83/122/6 117/133/6 109/134/6 75/123/6
f 84/120/6 120/131/6 110/132/6 76/121/6
f 96/117/4 111/130/4 113/31/4 98/14/4
f 123/141/8 121/143/8 122/144/8 124/142/8
f 102/110/4 117/133/4 124/142/4 122/144/4
f 100/109/9 102/110/9 122/144/9 121/143/9
f 115/140/3 100/109/3 121/143/3 123/141/3
usemtl Material.002
f 104/145/1 85/146/1 86/147/1 103/148/1
f 119/149/1 104/145/1 103/148/1 118/150/1
f 88/151/1 119/149/1 118/150/1 87/152/1
